<?xml version="1.0" encoding="UTF-8" standalone="no"?>
<!-- Created with Inkscape (http://www.inkscape.org/) -->

<svg
   xmlns:dc="http://purl.org/dc/elements/1.1/"
   xmlns:cc="http://creativecommons.org/ns#"
   xmlns:rdf="http://www.w3.org/1999/02/22-rdf-syntax-ns#"
   xmlns:svg="http://www.w3.org/2000/svg"
   xmlns="http://www.w3.org/2000/svg"
   xmlns:sodipodi="http://sodipodi.sourceforge.net/DTD/sodipodi-0.dtd"
   xmlns:inkscape="http://www.inkscape.org/namespaces/inkscape"
   width="210mm"
   height="297mm"
   viewBox="0 0 210 297"
   version="1.1"
   id="svg8"
   sodipodi:docname="jepria-2.0-logo.svg"
   inkscape:version="0.92.3 (2405546, 2018-03-11)">
  <defs
     id="defs2" />
  <sodipodi:namedview
     id="base"
     pagecolor="#ffffff"
     bordercolor="#666666"
     borderopacity="1.0"
     inkscape:pageopacity="0.0"
     inkscape:pageshadow="2"
     inkscape:zoom="0.7071068"
     inkscape:cx="215.73393"
     inkscape:cy="280.39425"
     inkscape:document-units="mm"
     inkscape:current-layer="layer1"
     showgrid="false"
     inkscape:snap-bbox="true"
     inkscape:bbox-paths="true"
     inkscape:bbox-nodes="true"
     inkscape:snap-bbox-edge-midpoints="true"
     inkscape:snap-smooth-nodes="true"
     showguides="false"
     inkscape:snap-global="true"
     inkscape:window-width="1920"
     inkscape:window-height="1017"
     inkscape:window-x="1912"
     inkscape:window-y="-8"
     inkscape:window-maximized="1"
     inkscape:snap-nodes="false"
     inkscape:snap-others="false"
     inkscape:snap-bbox-midpoints="true" />
  <metadata
     id="metadata5">
    <rdf:RDF>
      <cc:Work
         rdf:about="">
        <dc:format>image/svg+xml</dc:format>
        <dc:type
           rdf:resource="http://purl.org/dc/dcmitype/StillImage" />
      </cc:Work>
    </rdf:RDF>
  </metadata>
  <g
     inkscape:label="Layer 1"
     inkscape:groupmode="layer"
     id="layer1">
    <ellipse
       style="fill:#ff00ff;fill-opacity:0.54700856;stroke:none;stroke-width:0;stroke-miterlimit:4;stroke-dasharray:none;stroke-opacity:1"
       id="path887-4"
       cx="-383.41913"
       cy="12.68631"
       r="37.986603" />
    <g
       id="g4885"
       inkscape:export-xdpi="300"
       inkscape:export-ydpi="300"
       transform="translate(-25.044067,5.722046e-6)">
      <rect
         y="124.17847"
         x="80.678474"
         height="48.643055"
         width="48.643055"
         id="rect4856"
         style="fill:#dbe3de;fill-opacity:0;stroke:none;stroke-width:0;stroke-miterlimit:4;stroke-dasharray:none;stroke-opacity:1" />
      <path
         sodipodi:nodetypes="ccsscccccccssccccccccccccc"
         inkscape:connector-curvature="0"
         id="path1103"
         d="m 106.48488,125.80937 c -12.601425,4e-5 -22.815695,10.21578 -22.815665,22.81722 2e-5,6.0514 2.4033,11.85543 6.68227,16.13441 4.279,4.279 10.082015,6.68278 16.133395,6.6828 6.05142,2e-5 11.85591,-2.4038 16.13493,-6.6828 4.27902,-4.27898 6.68225,-10.08298 6.68228,-16.13441 2e-5,-6.05143 -2.40326,-11.85539 -6.68228,-16.13442 -4.27902,-4.27902 -10.08348,-6.6828 -16.13493,-6.6828 z m 9.24336,6.88176 v 10.51512 10.51357 c 3e-5,5.80592 -4.70543,10.5146 -10.51099,10.5146 h -0.36276 c -5.806935,0 -10.513615,-4.70766 -10.513575,-10.5146 v -10.51357 c 4.67347,-3e-5 8.513555,3.04845 9.834545,7.2657 0.32036,1.02277 0.42219,2.59815 0.42633,3.77703 0,8e-4 5.3e-4,0.002 5.3e-4,0.003 -2e-4,0.002 -2.7e-4,0.005 -5.3e-4,0.007 0,0.23175 0.18787,0.41961 0.41961,0.41961 0.23175,0 0.41961,-0.18786 0.41961,-0.41961 10e-6,-0.001 10e-6,-0.003 0,-0.004 4e-5,-0.002 5.3e-4,-0.004 5.3e-4,-0.006 -0.0952,-3.50387 -0.15709,-7.54006 -0.22738,-11.04273 -5e-5,-5.80672 4.70744,-10.51482 10.51409,-10.51512 z"
         style="fill:#5599ff;fill-opacity:0.54700856;stroke:none;stroke-width:331.2767334;stroke-miterlimit:4;stroke-dasharray:none;stroke-opacity:1" />
    </g>
    <path
       style="fill:#002255;fill-opacity:1;stroke:#000000;stroke-width:0;stroke-linecap:butt;stroke-linejoin:miter;stroke-miterlimit:4;stroke-dasharray:none;stroke-opacity:1"
       d="m 43.070099,132.72835 c -5.80665,3e-4 -10.51413,4.70841 -10.51408,10.51513 0.0703,3.50267 0.13217,7.53885 0.22737,11.04274 0,0.002 -4.8e-4,0.004 -5.2e-4,0.006 2e-5,0.001 2e-5,0.003 0,0.004 0,0.23174 -0.18786,0.41961 -0.41961,0.41961 -0.23174,0 -0.41961,-0.18787 -0.41961,-0.41961 2.7e-4,-0.002 3.2e-4,-0.005 5.2e-4,-0.007 0,-0.001 -5.2e-4,-0.002 -5.2e-4,-0.003 -0.004,-1.17889 -0.10597,-2.75427 -0.42633,-3.77704 -1.32099,-4.21725 -5.16107,-7.26574 -9.83454,-7.2657 v 10.51357 c -4e-5,5.80694 4.70664,10.5146 10.51357,10.5146 h 0.36277 c 5.80556,0 10.51101,-4.70868 10.51098,-10.5146 v -10.51357 z"
       id="path4879"
       inkscape:connector-curvature="0" />
    <g
       id="g1031"
       transform="translate(77.08053,-48.643045)">
      <path
         id="path1011"
         transform="scale(0.26458333)"
         d="m 364.83594,657.34961 a 86.235589,86.235589 0 0 0 -86.23633,86.23633 86.235589,86.235589 0 0 0 86.23633,86.23633 86.235589,86.235589 0 0 0 86.23437,-86.23633 86.235589,86.235589 0 0 0 -86.23437,-86.23633 z m 5.68945,28.14844 h 39.73828 a 39.739582,39.739582 0 0 1 -0.55273,6.55078 c -0.0223,0.13353 -0.0476,0.26697 -0.0703,0.40039 a 39.739582,39.739582 0 0 1 -0.76171,3.39844 c -0.0612,0.22382 -0.1264,0.44573 -0.19141,0.66796 a 39.739582,39.739582 0 0 1 -0.65039,1.96094 c -4.0701,11.55795 -13.42743,20.49307 -25.23438,24.19141 -3.86558,1.21081 -9.81974,1.59426 -14.27539,1.60937 -0.004,0 -0.008,0.004 -0.0117,0.004 -0.008,-6.8e-4 -0.0198,-0.003 -0.0273,-0.004 -0.87587,0 -1.58594,0.71004 -1.58594,1.58594 0,0.87587 0.71007,1.58594 1.58594,1.58594 0.004,7e-5 0.0119,7e-5 0.0156,0 0.008,1.9e-4 0.0159,0.002 0.0234,0.002 13.22754,-0.35936 28.45984,-0.5921 41.6875,-0.85742 a 39.739582,39.739582 0 0 1 -39.68945,38.38281 39.739582,39.739582 0 0 1 -39.74023,39.74024 v -39.74024 -39.73828 a 39.739582,39.739582 0 0 1 39.74023,-39.74023 z"
         style="fill:#5499ff;fill-opacity:0.54901961;stroke:none;stroke-width:0;stroke-miterlimit:4;stroke-dasharray:none;stroke-opacity:1"
         inkscape:connector-curvature="0" />
      <rect
         y="172.82152"
         x="73.712929"
         height="48.643055"
         width="48.643055"
         id="rect4856-5"
         style="fill:#dbe3de;fill-opacity:0;stroke:none;stroke-width:0;stroke-miterlimit:4;stroke-dasharray:none;stroke-opacity:1" />
    </g>
    <path
       style="fill:#002255;fill-opacity:1;stroke:none;stroke-width:0;stroke-miterlimit:4;stroke-dasharray:none;stroke-opacity:1"
       d="m 127.53566,132.72835 a 10.514431,10.514431 0 0 0 -10.5146,10.5146 v 10.51409 10.5146 a 10.514431,10.514431 0 0 0 10.5146,-10.5146 10.514431,10.514431 0 0 0 10.50117,-10.15545 c -3.49982,0.0702 -7.53003,0.13177 -11.02982,0.22686 -0.002,0 -0.004,-4.5e-4 -0.006,-5.1e-4 -10e-4,2e-5 -0.003,2e-5 -0.004,0 -0.23174,0 -0.41961,-0.18787 -0.41961,-0.41961 0,-0.23175 0.18787,-0.41963 0.41961,-0.41963 0.002,2.7e-4 0.005,8.3e-4 0.007,0.001 0.001,0 0.002,-0.001 0.003,-0.001 1.17889,-0.004 2.75426,-0.10544 3.77703,-0.42581 3.12392,-0.97852 5.59971,-3.3426 6.67659,-6.40064 a 10.514431,10.514431 0 0 0 0.17208,-0.51884 c 0.0172,-0.0588 0.0345,-0.11751 0.0507,-0.17673 a 10.514431,10.514431 0 0 0 0.20154,-0.89917 c 0.006,-0.0353 0.0127,-0.0706 0.0186,-0.10593 a 10.514431,10.514431 0 0 0 0.14624,-1.73323 z"
       id="path817-8-6"
       inkscape:connector-curvature="0" />
  </g>
</svg>
